<svg width="1102" height="1107" xmlns="http://www.w3.org/2000/svg" xmlns:xlink="http://www.w3.org/1999/xlink" xml:space="preserve" overflow="hidden"><g transform="translate(-1014 -352)"><text font-family="Montserrat ExtraBold,Montserrat ExtraBold_MSFontService,sans-serif" font-weight="800" font-size="303" transform="matrix(1 0 0 1 1196.41 731)">H</text><text font-family="Montserrat ExtraBold,Montserrat ExtraBold_MSFontService,sans-serif" font-weight="800" font-size="303" transform="matrix(1 0 0 1 1196.41 966)">E</text><text fill="#E6007A" font-family="Montserrat ExtraBold,Montserrat ExtraBold_MSFontService,sans-serif" font-weight="800" font-size="303" transform="matrix(1 0 0 1 1196.41 1202)">F</text><path d="M1087.5 386.5 1581.2 386.5" stroke="#CEDC30" stroke-width="55" stroke-miterlimit="8" fill="none" fill-rule="evenodd"/><path d="M1090.5 358.5 1090.5 878.185" stroke="#CEDC30" stroke-width="55" stroke-miterlimit="8" fill="none" fill-rule="evenodd"/><text font-family="Montserrat ExtraBold,Montserrat ExtraBold_MSFontService,sans-serif" font-weight="800" font-size="303" transform="matrix(1 0 0 1 1440.28 731)">O</text><text font-family="Montserrat ExtraBold,Montserrat ExtraBold_MSFontService,sans-serif" font-weight="800" font-size="303" transform="matrix(1 0 0 1 1692.24 731)">R</text><text font-family="Montserrat ExtraBold,Montserrat ExtraBold_MSFontService,sans-serif" font-weight="800" font-size="303" transform="matrix(1 0 0 1 1446.98 966)">C</text><text font-family="Montserrat ExtraBold,Montserrat ExtraBold_MSFontService,sans-serif" font-weight="800" font-size="303" transform="matrix(1 0 0 1 1690.12 966)">A</text><text fill="#E6007A" font-family="Montserrat ExtraBold,Montserrat ExtraBold_MSFontService,sans-serif" font-weight="800" font-size="303" transform="matrix(1 0 0 1 1446.35 1202)">A</text><text fill="#E6007A" font-family="Montserrat ExtraBold,Montserrat ExtraBold_MSFontService,sans-serif" font-weight="800" font-size="303" transform="matrix(1 0 0 1 1690.12 1202)">N</text></g></svg>